<svg xmlns="http://www.w3.org/2000/svg" viewBox="0 0 512 512" width="512px" height="512px"><title>005-reward</title><polygon points="464 444.8 388.3 445.9 349.9 512 299.7 426.7 264.5 366.9 379.7 299.7 414.9 360.5 464 444.8" style="fill:#ff7058"/><polygon points="247.5 366.9 212.3 426.7 162.1 512 123.7 445.9 48 444.8 97.1 360.5 132.3 299.7 247.5 366.9" style="fill:#ff7058"/><path d="M132.3,299.7l115.2,67.2-35.2,59.7c-4.3-3.2-7.5-6.4-10.7-7.5h-3.2c-4.3,0-10.7,1.1-16,2.1a81.2,81.2,0,0,1-22.4,3.2c-7.5,0-13.9-1.1-20.3-5.3-13.9-8.5-19.2-23.5-23.5-36.3-2.1-7.5-5.3-14.9-7.5-18.1s-6.4-4.3-10.7-5.3Z" style="fill:#231f20;opacity:0.100000001490116;isolation:isolate"/><path d="M414.9,360.5c-4.3,2.1-8.5,3.2-10.7,5.3s-5.3,10.7-7.5,18.1c-4.3,13.9-9.6,28.8-23.5,36.3a37.9,37.9,0,0,1-20.3,5.3,81.2,81.2,0,0,1-22.4-3.2c-6.4-1.1-11.7-2.1-16-2.1h-3.2c-3.2,1.1-6.4,3.2-10.7,7.5L265.6,368l115.2-67.2Z" style="fill:#231f20;opacity:0.100000001490116;isolation:isolate"/><path d="M473.6,217.6c0,18.1-26.7,33.1-30.9,50.1s10.7,43.7,2.1,58.7-39.5,14.9-52.3,27.7-11.7,42.7-27.7,52.3-41.6-6.4-58.7-2.1-32,30.9-50.1,30.9-33.1-26.7-50.1-30.9-43.7,10.7-58.7,2.1-14.9-39.5-27.7-52.3-42.7-11.7-52.3-27.7,6.4-41.6,2.1-58.7-30.9-32-30.9-50.1,26.7-33.1,30.9-50.1-10.7-43.7-2.1-58.7,39.5-14.9,52.3-27.7,11.7-42.7,27.7-52.3,41.6,6.4,58.7,2.1S237.9,0,256,0s33.1,26.7,50.1,30.9,43.7-10.7,58.7-2.1,14.9,39.5,27.7,52.3,42.7,11.7,52.3,27.7-6.4,41.6-2.1,58.7S473.6,199.5,473.6,217.6Z" style="fill:#ffd15c"/><polygon points="256 128 277.3 193.1 346.7 193.1 290.1 233.6 311.5 299.7 256 259.2 200.5 299.7 221.9 233.6 165.3 193.1 234.7 193.1 256 128" style="fill:#fff"/><path d="M256,370.1A152.5,152.5,0,1,1,408.5,217.6,152.5,152.5,0,0,1,256,370.1Zm0-273.1c-66.1,0-120.5,54.4-120.5,120.5S189.9,338.1,256,338.1s120.5-54.4,120.5-120.5S322.1,97.1,256,97.1Z" style="fill:#ff7058"/><path d="M256,370.1c-82.1,0-149.3-66.1-152.5-147.2v5.3a152.5,152.5,0,0,0,305.1,0v-5.3C405.3,305.1,338.1,370.1,256,370.1Z" style="fill:#231f20;opacity:0.100000001490116;isolation:isolate"/></svg>