<svg xmlns="http://www.w3.org/2000/svg" xmlns:xlink="http://www.w3.org/1999/xlink" viewBox="0 0 119 22" width="119px" height="22px"><defs><linearGradient id="a" x1="16.7" y1="21.09" x2="16.7" y2="0.23" gradientUnits="userSpaceOnUse"><stop offset="0" stop-color="#6cc071" stop-opacity="0.3"/><stop offset="0.67" stop-color="#b2d235" stop-opacity="0.5"/><stop offset="1" stop-color="#fff9ae" stop-opacity="0.8"/></linearGradient></defs><title>logo-upclass</title><path d="M7.6,22h5.7C13.9,20.5,19.5,8.6,34.1.4A.2.2,0,0,0,34,0H21.4c-.8.7-8.2,7.6-11,14.6a.2.2,0,0,1-.4,0A33,33,0,0,0,5.7,7.9H.2a.2.2,0,0,0-.2.4A29,29,0,0,1,7.4,21.8Z" fill="#129e4a"/><path d="M7.8,21.1A30.4,30.4,0,0,0,.9,8H5.3a34.3,34.3,0,0,1,4,6.5.8.8,0,0,0,1.4,0C13.4,7.9,20.3,1.3,21.5.2h11A53.3,53.3,0,0,0,17.9,13a42.4,42.4,0,0,0-5.1,8.1Z" fill="url(#a)"/><path d="M11.2,11,9.9,9.5H8.1l2.1,3.2Z" fill="#0c3166"/><path d="M37.8,3.1H32.4a50.7,50.7,0,0,0-13.7,12,43.8,43.8,0,0,0-3.7,5.5l1.4-1.3C23.7,10.9,34.7,5.1,37.9,3.5A.2.2,0,0,0,37.8,3.1Z" fill="#0c3166"/><path d="M44.6,21.9a6.7,6.7,0,0,1-3.3-.7,3.7,3.7,0,0,1-1.7-2,9.8,9.8,0,0,1-.5-3.3V3.1h4.1V16.5a7.2,7.2,0,0,0,.1,1.1,1.9,1.9,0,0,0,.4.9,1.4,1.4,0,0,0,1.9,0,1.9,1.9,0,0,0,.4-.9,8.3,8.3,0,0,0,.1-1.1V3.1h4.1V15.9a9.6,9.6,0,0,1-.5,3.3,3.8,3.8,0,0,1-1.7,2A6.6,6.6,0,0,1,44.6,21.9Z" fill="#0a2b54"/><path d="M52.1,21.6V3.1h6.2a5.4,5.4,0,0,1,2.7.6,3.8,3.8,0,0,1,1.6,1.8,7.3,7.3,0,0,1,.5,2.9,6.2,6.2,0,0,1-.7,3.3,3.7,3.7,0,0,1-1.9,1.6,8,8,0,0,1-2.7.4H56.2v7.9Zm4.1-10.7h1.4a2,2,0,0,0,1.1-.3,1.3,1.3,0,0,0,.5-.8,6.4,6.4,0,0,0,.1-1.4,6.7,6.7,0,0,0-.1-1.2,1.4,1.4,0,0,0-.5-.9,1.9,1.9,0,0,0-1.2-.3H56.2Z" fill="#0a2b54"/><path d="M70,21.9a6.2,6.2,0,0,1-3.3-.8A4.1,4.1,0,0,1,64.9,19a9.5,9.5,0,0,1-.5-3.3V9a9.7,9.7,0,0,1,.5-3.3,4.1,4.1,0,0,1,1.7-2.1A6.3,6.3,0,0,1,70,2.8a6.4,6.4,0,0,1,3.2.7,3.7,3.7,0,0,1,1.6,1.9,7.5,7.5,0,0,1,.5,2.8V9.8h-4V7.9a9.4,9.4,0,0,0-.1-1.1,1.6,1.6,0,0,0-.3-.8,1.2,1.2,0,0,0-.9-.3A1.2,1.2,0,0,0,69,6a1.6,1.6,0,0,0-.4.9A7,7,0,0,0,68.5,8v8.7a5.8,5.8,0,0,0,.1,1.1,1.6,1.6,0,0,0,.4.8,1.2,1.2,0,0,0,.9.3,1.1,1.1,0,0,0,.9-.3,1.6,1.6,0,0,0,.3-.9,8.3,8.3,0,0,0,.1-1.1V14.8h4v1.6a8,8,0,0,1-.5,2.8,3.9,3.9,0,0,1-1.6,2A6.1,6.1,0,0,1,70,21.9Z" fill="#0c3166"/><path d="M77,21.6V3.1h4.1V18.8h4.3v2.8Z" fill="#0c3166"/><path d="M85.6,21.6,89.2,3.1h4.7l3.5,18.5H93.5l-.6-3.9H90.2l-.6,3.9Zm4.9-6.4h2L91.5,8Z" fill="#0c3166"/><path d="M103.3,21.9a6.2,6.2,0,0,1-2.9-.6,4,4,0,0,1-1.8-1.9A8.8,8.8,0,0,1,98,16l3.5-.5a8.3,8.3,0,0,0,.2,1.9,2.1,2.1,0,0,0,.5,1.1,1.2,1.2,0,0,0,.9.3.8.8,0,0,0,.8-.4,2.2,2.2,0,0,0,.2-.9,3.3,3.3,0,0,0-.5-1.9,8.6,8.6,0,0,0-1.5-1.6l-1.6-1.4a8.9,8.9,0,0,1-1.8-2A5.1,5.1,0,0,1,98,7.7a4.6,4.6,0,0,1,1.4-3.6,5.5,5.5,0,0,1,3.8-1.2,4.9,4.9,0,0,1,2.4.5A3.5,3.5,0,0,1,107,4.6a5.5,5.5,0,0,1,.6,1.7,10.9,10.9,0,0,1,.2,1.7l-3.5.4a14.1,14.1,0,0,0-.1-1.4,2,2,0,0,0-.3-.9.9.9,0,0,0-.8-.3.9.9,0,0,0-.8.5,2,2,0,0,0-.3,1,2.7,2.7,0,0,0,.5,1.7l1.3,1.4,1.5,1.4a10.4,10.4,0,0,1,2,2.3,5.9,5.9,0,0,1,.8,3.2,4.8,4.8,0,0,1-.6,2.4,4.4,4.4,0,0,1-1.7,1.7A5.1,5.1,0,0,1,103.3,21.9Z" fill="#0c3166"/><path d="M114.2,21.9a6.2,6.2,0,0,1-2.9-.6,4,4,0,0,1-1.8-1.9,8.8,8.8,0,0,1-.7-3.4l3.5-.5a8.3,8.3,0,0,0,.2,1.9,2.1,2.1,0,0,0,.5,1.1,1.2,1.2,0,0,0,.9.3.8.8,0,0,0,.8-.4,2.2,2.2,0,0,0,.2-.9,3.3,3.3,0,0,0-.5-1.9,8.6,8.6,0,0,0-1.5-1.6l-1.6-1.4a8.9,8.9,0,0,1-1.8-2,5.1,5.1,0,0,1-.7-2.8,4.6,4.6,0,0,1,1.4-3.6A5.5,5.5,0,0,1,114,2.8a4.9,4.9,0,0,1,2.4.5,3.5,3.5,0,0,1,1.4,1.3,5.5,5.5,0,0,1,.6,1.7,10.9,10.9,0,0,1,.2,1.7l-3.5.4a14.1,14.1,0,0,0-.1-1.4,2,2,0,0,0-.3-.9.9.9,0,0,0-.8-.3.9.9,0,0,0-.8.5,2,2,0,0,0-.3,1,2.7,2.7,0,0,0,.5,1.7l1.3,1.4,1.5,1.4a10.4,10.4,0,0,1,2,2.3,5.9,5.9,0,0,1,.8,3.2,4.8,4.8,0,0,1-.6,2.4,4.4,4.4,0,0,1-1.7,1.7A5.1,5.1,0,0,1,114.2,21.9Z" fill="#0c3166"/></svg>