<svg xmlns="http://www.w3.org/2000/svg" viewBox="0 0 40 40" width="40px" height="40px"><title>processo-producao-01</title><g style="isolation:isolate"><ellipse cx="20" cy="31.2" rx="19.5" ry="7.8" fill="#ededed"/><polygon points="31.5 15.3 31.5 27.8 24.3 32.1 24 31.9 20.8 33.8 20.8 34.1 19.5 34.8 19.5 22.3 31.5 15.3" fill="#570100"/><polygon points="29.6 18.2 30.1 17.9 30.1 27.5 29.6 27.8 29.6 18.2" fill="#ba3636"/><polygon points="30.6 17.6 31.1 17.3 31.1 26.9 30.6 27.2 30.6 17.6" fill="#ba3636"/><polygon points="28.6 18.8 29.1 18.5 29.1 28.1 28.6 28.4 28.6 18.8" fill="#ba3636"/><polygon points="27.6 19.4 28.2 19 28.2 28.7 27.6 29 27.6 19.4" fill="#ba3636"/><polygon points="26.6 19.9 27.2 19.6 27.2 29.2 26.6 29.5 26.6 19.9" fill="#ba3636"/><polygon points="25.6 20.5 26.2 20.2 26.2 29.8 25.6 30.1 25.6 20.5" fill="#ba3636"/><polygon points="24.7 21.1 25.2 20.7 25.2 30.4 24.7 30.7 24.7 21.1" fill="#ba3636"/><polygon points="23.7 21.6 24.2 21.3 24.2 30.9 23.7 31.3 23.7 21.6" fill="#ba3636"/><polygon points="22.7 22.2 23.2 21.9 23.2 31.5 22.7 31.8 22.7 22.2" fill="#ba3636"/><polygon points="21.7 22.8 22.3 22.4 22.3 32.1 21.7 32.4 21.7 22.8" fill="#ba3636"/><polygon points="20.7 23.3 21.3 23 21.3 32.6 20.7 33 20.7 23.3" fill="#ba3636"/><polygon points="19.7 23.9 20.3 23.6 20.3 33.2 19.7 33.5 19.7 23.9" fill="#ba3636"/><polygon points="29.7 18.1 30.3 17.8 30.3 27.4 29.7 27.7 29.7 18.1" fill="#750000"/><polygon points="30.7 17.5 31.3 17.2 31.3 26.8 30.7 27.1 30.7 17.5" fill="#750000"/><polygon points="28.7 18.7 29.3 18.4 29.3 28 28.7 28.3 28.7 18.7" fill="#750000"/><polygon points="27.8 19.3 28.3 18.9 28.3 28.6 27.8 28.9 27.8 19.3" fill="#750000"/><polygon points="26.8 19.8 27.3 19.5 27.3 29.1 26.8 29.5 26.8 19.8" fill="#750000"/><polygon points="25.8 20.4 26.3 20.1 26.3 29.7 25.8 30 25.8 20.4" fill="#750000"/><polygon points="24.8 21 25.4 20.6 25.4 30.3 24.8 30.6 24.8 21" fill="#750000"/><polygon points="23.8 21.5 24.4 21.2 24.4 30.8 23.8 31.2 23.8 21.5" fill="#750000"/><polygon points="22.8 22.1 23.4 21.8 23.4 31.4 22.8 31.7 22.8 22.1" fill="#750000"/><polygon points="21.9 22.7 22.4 22.4 22.4 32 21.9 32.3 21.9 22.7" fill="#750000"/><polygon points="20.9 23.2 21.4 22.9 21.4 32.5 20.9 32.9 20.9 23.2" fill="#750000"/><polygon points="19.9 23.8 20.4 23.5 20.4 33.1 19.9 33.4 19.9 23.8" fill="#750000"/><polygon points="31.5 25.9 31.9 26 23.8 32 21.3 33.5 19.5 34.5 19.5 32.9 31.5 25.9" fill="#d8d8d8"/><polygon points="31.9 26 31.9 27.6 23.8 32.4 21.3 33.8 19.5 34.8 19.5 33.2 31.9 26" fill="#9d9b96"/><polygon points="8.5 16 20.5 9 31.5 15.3 19.5 22.3 8.5 16" fill="#d1c9ca"/><polygon points="20.5 10.6 29.5 15.8 30.3 15.3 20.5 9.7 10 15.8 11.4 16 20.5 10.6" fill="#7e898d"/><polygon points="20.5 9.7 20.5 10.6 11.4 16 10 15.8 20.5 9.7" fill="#545354"/><polygon points="12.4 16.1 21.2 11 20.5 10.6 11.4 16 12.4 16.1" fill="#8f8f8f"/><polygon points="19.5 34.8 18.4 34.1 18.4 33.9 11 29.6 18 33.9 8.5 28.4 8.5 16 13.9 16.7 19.5 22.3 19.5 34.8" fill="#c9332e"/><polygon points="9.7 27.9 9.7 16.7 9.1 16.4 9.1 27.6 9.7 27.9" fill="#820905"/><polygon points="10.9 17.4 10.3 17 10.3 28.3 10.9 28.6 10.9 17.4" fill="#820905"/><polygon points="12 18 11.5 17.7 11.5 28.9 12 29.3 12 18" fill="#820905"/><polygon points="13.2 18.7 12.7 18.4 12.7 29.6 13.2 29.9 13.2 18.7" fill="#820905"/><polygon points="14.4 19.4 13.8 19.1 13.8 30.3 14.4 30.6 14.4 19.4" fill="#820905"/><polygon points="15.6 20.1 15 19.8 15 31 15.6 31.3 15.6 20.1" fill="#820905"/><polygon points="16.8 20.8 16.2 20.5 16.2 31.7 16.8 32 16.8 20.8" fill="#820905"/><polygon points="17.9 21.5 17.4 21.2 17.4 32.3 17.9 32.7 17.9 21.5" fill="#820905"/><polygon points="19.1 22.2 18.6 21.9 18.6 33 19.1 33.3 19.1 22.2" fill="#820905"/><polygon points="9.5 27.8 9.5 16.6 8.9 16.3 8.9 27.5 9.5 27.8" fill="#db3732"/><polygon points="10.7 17.3 10.1 16.9 10.1 28.2 10.7 28.5 10.7 17.3" fill="#db3732"/><polygon points="11.9 17.9 11.3 17.6 11.3 28.8 11.9 29.2 11.9 17.9" fill="#db3732"/><polygon points="13 18.6 12.5 18.3 12.5 29.5 13 29.8 13 18.6" fill="#db3732"/><polygon points="14.2 19.3 13.7 19 13.7 30.2 14.2 30.5 14.2 19.3" fill="#db3732"/><polygon points="15.4 20 14.8 19.7 14.8 30.9 15.4 31.2 15.4 20" fill="#db3732"/><polygon points="16.6 20.7 16 20.4 16 31.6 16.6 31.9 16.6 20.7" fill="#db3732"/><polygon points="17.7 21.4 17.2 21.1 17.2 32.2 17.7 32.6 17.7 21.4" fill="#db3732"/><polygon points="18.9 22.1 18.4 21.8 18.4 32.9 18.9 33.2 18.9 22.1" fill="#db3732"/><polygon points="18.4 32.2 18.4 32.2 15.6 30.7 8.5 26.5 8.5 26.5 8 26.6 18.4 33.8 18.4 33.8 19.5 34.5 19.5 32.9 18.4 32.2" fill="#fff3f4"/><polygon points="18.4 32.6 18.4 32.6 15.6 31 8.5 26.9 8 26.6 8 28.2 18.4 34.1 18.4 34.1 19.5 34.8 19.5 33.2 18.4 32.6" fill="#d3c9ca"/><polygon points="26.4 9.2 13.4 16.8 7.4 15.9 20.4 8.4 26.4 9.2" fill="#fae35a"/><polygon points="7.4 15.9 19.6 22.9 13.4 16.8 7.4 15.9" fill="#e6a007"/><polygon points="26.4 9.2 13.4 16.8 19.6 22.9 32.6 15.3 26.4 9.2" fill="#cf8d00"/><polygon points="20.4 22.5 14.2 16.3 14.5 16.1 20.7 22.2 20.4 22.5" fill="#bd8100"/><polygon points="22.1 21.5 15.9 15.3 16.2 15.1 22.4 21.2 22.1 21.5" fill="#bd8100"/><polygon points="23.8 20.5 17.7 14.4 17.9 14.1 24.1 20.2 23.8 20.5" fill="#bd8100"/><polygon points="25.5 19.5 19.4 13.4 19.6 13.1 25.8 19.2 25.5 19.5" fill="#bd8100"/><polygon points="27.3 18.5 21.1 12.4 21.3 12.1 27.5 18.2 27.3 18.5" fill="#bd8100"/><polygon points="29 17.5 22.8 11.4 23 11.1 29.2 17.2 29 17.5" fill="#bd8100"/><polygon points="30.7 16.5 24.5 10.4 24.7 10.1 30.9 16.2 30.7 16.5" fill="#bd8100"/><polygon points="14.3 16.4 8.4 15.5 8.5 15.2 14.4 16 14.3 16.4" fill="#e0ac28"/><polygon points="16 15.4 10.1 14.5 10.2 14.2 16.1 15 16 15.4" fill="#e0ac28"/><polygon points="17.8 14.4 11.8 13.5 11.9 13.2 17.8 14 17.8 14.4" fill="#e0ac28"/><polygon points="19.5 13.4 13.5 12.6 13.6 12.2 19.5 13 19.5 13.4" fill="#e0ac28"/><polygon points="21.2 12.4 15.2 11.6 15.3 11.2 21.2 12.1 21.2 12.4" fill="#e0ac28"/><polygon points="22.9 11.4 16.9 10.6 17 10.2 22.9 11.1 22.9 11.4" fill="#e0ac28"/><polygon points="24.6 10.4 18.6 9.6 18.7 9.2 24.7 10.1 24.6 10.4" fill="#e0ac28"/><polygon points="32.2 15.6 26 9.5 26.3 9.3 32.4 15.4 32.2 15.6" fill="#bd8100"/><polygon points="26.1 9.6 20.2 8.7 20.2 8.3 26.2 9.2 26.1 9.6" fill="#e0ac28"/><polygon points="16.9 31.8 16.9 33.3 17.6 33.7 17.6 32.2 16.9 31.8" fill="#d3c9ca"/><polygon points="9.7 20.8 9.7 29.1 17.1 33.4 17.1 31.1 17.1 25.1 10.1 21.1 9.7 20.8" fill="#75a352"/><polygon points="9.7 20.8 9.7 29.1 10.6 28.5 10.6 21.4 9.7 20.8" fill="#570100"/><polygon points="10.1 21.1 10.1 27.6 17.1 32 17.1 25.1 10.1 21.1" fill="#ebe7e7"/><rect x="13.5" y="19.3" width="0.2" height="8.1" transform="translate(-13.4 23.5) rotate(-60)" fill="#c0c4d1"/><rect x="13.5" y="20.9" width="0.2" height="8.1" transform="translate(-14.8 24.3) rotate(-60)" fill="#c0c4d1"/><rect x="13.5" y="20.1" width="0.2" height="8.1" transform="translate(-14.1 23.9) rotate(-60)" fill="#c0c4d1"/><rect x="13.5" y="21.8" width="0.2" height="8.1" transform="translate(-15.6 24.7) rotate(-60)" fill="#c0c4d1"/><rect x="13.5" y="22.7" width="0.2" height="8.1" transform="translate(-16.3 25.2) rotate(-60)" fill="#c0c4d1"/><rect x="13.5" y="23.6" width="0.2" height="8.1" transform="translate(-17.1 25.6) rotate(-60)" fill="#c0c4d1"/><rect x="13.5" y="24.8" width="0.2" height="8.1" transform="translate(-18.2 26.2) rotate(-60)" fill="#73757d"/><polygon points="17.1 30.3 10.1 26.2 10.1 27.1 17.1 31.1 17.1 30.3" fill="#222"/><polygon points="10.1 27.1 10.1 28.8 11.6 28.8 17.1 32 17.1 31.1 10.1 27.1" fill="#44662a"/><polygon points="16.5 25.1 13.6 23.5 13.6 24.4 16.5 26 16.5 25.1" fill="#696969"/><polygon points="13.7 24.2 13.7 23.7 16.4 25.3 16.4 25.8 13.7 24.2" fill="#799abc"/><polygon points="13.8 24.2 13.8 23.8 13.7 23.7 13.7 24.2 16.4 25.8 16.4 25.7 13.8 24.2" fill="#b1b1b1"/><polygon points="10.7 21.8 10.7 22.7 13.2 24.1 13.2 23.2 10.7 21.8" fill="#696969"/><polygon points="10.8 22.5 10.8 22 13 23.3 13 23.8 10.8 22.5" fill="#799abc"/><polygon points="10.9 22.5 10.9 22.1 10.8 22 10.8 22.5 13 23.8 13 23.8 10.9 22.5" fill="#b1b1b1"/><polygon points="25.2 36.6 21.2 34.3 21.2 28.7 25.2 31 25.2 36.6" fill="#ba9d5e"/><polygon points="24.8 31.3 24.8 35.9 21.6 34.1 21.6 29.4 24.8 31.3" fill="#a17f4c"/><polygon points="28 29.4 25.2 31 25.2 36.6 28 35 28 29.4" fill="#d1a64f"/><polygon points="25.2 36.6 28.6 34.7 28.6 29.1 25.2 31 25.2 36.6" fill="#d2b371"/><polygon points="25.6 31.3 25.6 35.9 28.2 34.4 28.2 29.8 25.6 31.3" fill="#c5a666"/><polygon points="28 34.3 28 29.9 28.2 29.8 28.2 34.4 25.6 35.9 25.6 35.7 28 34.3" fill="#a17f4c"/><polygon points="25.6 33.3 25.6 33.6 28.2 32 28 31.9 25.6 33.3" fill="#f5df95"/><polygon points="28.2 32.4 28.2 32 25.6 33.4 25.6 33.9 28.2 32.4" fill="#d2b371"/><polygon points="28 34.3 28.2 34.4 25.6 35.9 25.6 35.7 28 34.3" fill="#f5df95"/><polygon points="21.8 34 21.8 29.5 21.6 29.4 21.6 34.1 24.8 35.9 24.8 35.7 21.8 34" fill="#c9a963"/><polygon points="24.8 33.3 24.8 33.6 21.6 31.6 21.8 31.5 24.8 33.3" fill="#dfbf7b"/><polygon points="21.6 32 21.6 31.6 24.8 33.4 24.8 33.9 21.6 32" fill="#ba9d5e"/><polygon points="21.8 34 21.6 34.1 24.8 35.9 24.8 35.7 21.8 34" fill="#dfbf7b"/><polygon points="28 29.4 25.2 31 21.2 28.7 24 27.1 28 29.4" fill="#d1a64f"/><polygon points="21.2 28.7 24.6 26.8 28.6 29.1 25.2 31 21.2 28.7" fill="#f5df95"/><polygon points="25.2 30.6 22 28.7 24.6 27.3 27.8 29.1 25.2 30.6" fill="#e3c87f"/><polygon points="24.6 27.4 27.6 29.2 27.8 29.1 24.6 27.3 22 28.7 22.2 28.8 24.6 27.4" fill="#a17f4c"/><polygon points="23.8 29.8 23.5 29.6 26.2 28.2 26.2 28.4 23.8 29.8" fill="#d2b371"/><polygon points="25.8 28 26.2 28.2 23.6 29.7 23.3 29.5 25.8 28" fill="#f5df95"/><polygon points="24.6 27.4 24.6 27.3 22 28.7 22.2 28.8 24.6 27.4" fill="#d2b371"/><polygon points="27.8 30.5 27.8 30.9 27.6 31.1 27.6 30.6 27.5 30.7 27.7 30.3 27.9 30.5 27.8 30.5" fill="#654532"/><polygon points="26.4 31 25.8 32.1 26.3 32.4 26.8 31.3 26.4 31" fill="#c9c9c9"/><path d="M27.4,30.7h-.1v.2h0V31h.2Z" fill="#654532"/><polygon points="22.2 36.9 20 35.6 20 33.2 22.2 34.5 22.2 36.9" fill="#bf9245"/><polygon points="24 33.5 22.2 34.5 22.2 36.9 24 35.9 24 33.5" fill="#cfa658"/><path d="M22.4,35.5v-.8h0l.6-.3v.8h0Zm0-.8v.7l.5-.3v-.7Z" fill="#a05e00"/><polygon points="22.8 34.8 22.8 35.2 22.6 35.3 22.6 34.9 22.5 34.9 22.7 34.6 22.9 34.8 22.8 34.8" fill="#a05e00"/><polygon points="24 33.5 22.2 34.5 21.2 33.9 20.8 33.7 20 33.2 21.7 32.2 22.6 32.7 22.9 32.9 24 33.5" fill="#edce7d"/><polygon points="21.2 33.9 20.8 33.7 22.6 32.7 22.9 32.9 21.2 33.9" fill="#fee9ab"/><polygon points="20.8 35.9 20.1 35.5 20.1 35 20.8 35.3 20.8 35.9" fill="#ababab"/><polygon points="20.7 35.8 20.2 35.5 20.2 35.5 20.7 35.8 20.7 35.8" fill="#595959"/><polygon points="20.7 35.8 20.2 35.4 20.2 35.4 20.7 35.7 20.7 35.8" fill="#595959"/><polygon points="20.7 35.7 20.2 35.4 20.2 35.3 20.7 35.7 20.7 35.7" fill="#595959"/><polygon points="20.7 35.6 20.2 35.3 20.2 35.3 20.7 35.6 20.7 35.6" fill="#595959"/><polygon points="20.7 35.5 20.2 35.2 20.2 35.1 20.7 35.4 20.7 35.5" fill="#595959"/><polygon points="20.8 33.7 20.8 34.5 20.9 34.3 21 34.6 21.1 34.4 21.1 34.7 21.2 33.9 20.8 33.7" fill="#dbc68a"/><polygon points="23.4 34.2 23.2 34.3 23.2 34.5 23.4 34.4 23.4 34.2" fill="#a05e00"/><polygon points="23.6 34.1 23.4 34.2 23.4 34.4 23.6 34.3 23.6 34.1" fill="#a05e00"/><polygon points="23.8 33.9 23.7 34 23.7 34.2 23.8 34.1 23.8 33.9" fill="#a05e00"/><polygon points="25.1 27.5 23.7 28.3 25.4 29.3 26.8 28.5 25.1 27.5" fill="#e6daca" style="mix-blend-mode:multiply"/><polygon points="26.5 29.9 24.8 28.9 24.8 27.9 26.5 28.9 26.5 29.9" fill="#bf9245"/><polygon points="27.9 28.1 26.5 28.9 26.5 29.9 27.9 29.1 27.9 28.1" fill="#cfa658"/><polygon points="27.9 28.1 26.5 28.9 25.7 28.4 25.4 28.3 24.8 27.9 26.1 27.1 26.8 27.5 27.1 27.6 27.9 28.1" fill="#edce7d"/><polygon points="25.7 28.4 25.4 28.3 26.8 27.5 27.1 27.6 25.7 28.4" fill="#fee9ab"/><polygon points="25.4 28.3 25.4 28.9 25.5 28.7 25.5 28.9 25.6 28.8 25.7 29 25.7 28.4 25.4 28.3" fill="#dbc68a"/><polygon points="27.4 28.6 27.3 28.7 27.3 28.9 27.4 28.8 27.4 28.6" fill="#a05e00"/><polygon points="27.6 28.5 27.4 28.6 27.4 28.8 27.6 28.7 27.6 28.5" fill="#a05e00"/><polygon points="27.8 28.4 27.6 28.5 27.6 28.7 27.8 28.6 27.8 28.4" fill="#a05e00"/><polygon points="26.4 27.3 26.1 27.6 25.8 27.4 26.2 27.2 26.4 27.3" fill="#ebebeb"/><polygon points="26.4 27.3 26.1 27.5 26 27.5 26.4 27.3 26.4 27.3" fill="#bfbfbf"/><polygon points="26.4 27.3 26 27.5 26 27.5 26.3 27.3 26.4 27.3" fill="#bfbfbf"/><polygon points="26.3 27.3 26 27.5 26 27.5 26.3 27.3 26.3 27.3" fill="#bfbfbf"/><polygon points="26.3 27.3 25.9 27.5 25.9 27.5 26.3 27.3 26.3 27.3" fill="#bfbfbf"/><polygon points="26.2 27.2 25.9 27.4 25.8 27.4 26.2 27.2 26.2 27.2" fill="#bfbfbf"/><path d="M26.6,29.4V29h0l.3-.2v.4h0Zm0-.4v.4h.3v-.4Z" fill="#a05e00"/><polygon points="26.8 29 26.8 29.2 26.7 29.3 26.7 29.1 26.7 29.1 26.7 28.9 26.8 29 26.8 29" fill="#a05e00"/></g></svg>