<svg xmlns="http://www.w3.org/2000/svg" xmlns:xlink="http://www.w3.org/1999/xlink" viewBox="0 0 40 40" width="40px" height="40px"><defs><style>.a{isolation:isolate;}.b{fill:#e8e8e8;}.c{fill:#f5c207;}.d{fill:#db8a00;}.e{fill:#bdcacf;}.f{fill:#dfe1eb;}.g{fill:#d4d4d1;mix-blend-mode:multiply;}.h{fill:#d3d3d9;}.i{fill:#9fa7ab;}.j{fill:#919191;}.k{fill:#bdbdbd;}.l{fill:#e7e3e3;}.m{fill:#ababab;}.n{fill:#9e9e9e;}.o{fill:#c2c2c2;}.p{fill:#f3f3f3;}.q{fill:url(#a);}.r{fill:url(#b);}.s{fill:url(#c);}.t{fill:url(#d);}.u{fill:#b5b5b5;}.v{fill:#8d8b8e;}.w{fill:url(#e);}.x{fill:#bfbfbf;}.y{fill:url(#f);}.z{fill:#f0f0f0;}.aa{fill:#787878;}.ab{fill:#adadad;}.ac{fill:#727273;}.ad{fill:#444445;}.ae{fill:url(#g);}.af{fill:#cc4935;}.ag{fill:#8a2212;}.ah{fill:#ffa1a1;}.ai{fill:#b41e05;}.aj{fill:#870000;}.ak{fill:url(#h);}.al{fill:#ff6d54;}.am{fill:#808b90;}.an{fill:url(#i);}.ao{fill:url(#j);}.ap{fill:url(#k);}.aq{fill:url(#l);}.ar{fill:url(#m);}.as{fill:url(#n);}.at{fill:url(#o);}.au{fill:url(#p);}.av{fill:#fed542;}.aw{fill:#edba00;}.ax{fill:#fff67d;}.ay{fill:#c77f3c;}.az{fill:#7a7a7a;}.ba{fill:#41484d;}.bb{fill:#4d565b;}.bc{fill:#a1abb3;}.bd{fill:#c7c7c7;}.be{fill:url(#q);}.bf{fill:#e6f5ff;}.bg{fill:url(#r);}.bh{fill:url(#s);}.bi{fill:url(#t);}.bj{fill:url(#u);}.bk{fill:url(#v);}.bl{fill:url(#w);}.bm{fill:url(#x);}.bn{fill:url(#y);}.bo{fill:url(#z);}.bp{fill:url(#aa);}.bq{fill:url(#ab);}.br{fill:url(#ac);}.bs{fill:url(#ad);}.bt{fill:url(#ae);}.bu{fill:url(#af);}.bv{fill:url(#ag);}.bw{fill:url(#ah);}.bx{fill:url(#ai);}.by{fill:url(#aj);}.bz{fill:url(#ak);}.ca{fill:url(#al);}.cb{fill:url(#am);}.cc{fill:url(#an);}.cd{fill:url(#ao);}.ce{fill:url(#ap);}.cf{fill:url(#aq);}.cg{fill:url(#ar);}.ch{fill:url(#as);}.ci{fill:url(#at);}.cj{fill:#b8b8b8;}.ck{fill:#d6d6d6;}.cl{fill:#909090;}.cm{fill:#474747;}.cn{fill:#636363;}.co{fill:#4976b6;}</style><linearGradient id="a" x1="1179.49" y1="15.82" x2="1182.13" y2="15.82" gradientTransform="translate(-1165.4)" gradientUnits="userSpaceOnUse"><stop offset="0.16" stop-color="#9c9c9c"/><stop offset="0.16" stop-color="#bfbfbf"/><stop offset="0.56" stop-color="#bfbfbf"/><stop offset="0.56" stop-color="#ccc"/><stop offset="0.87" stop-color="#ccc"/><stop offset="0.87" stop-color="#e3e3e3"/></linearGradient><linearGradient id="b" x1="1179.49" y1="12.83" x2="1182.12" y2="12.83" xlink:href="#a"/><linearGradient id="c" x1="1179.49" y1="13.5" x2="1182.12" y2="13.5" gradientTransform="translate(-1165.4)" gradientUnits="userSpaceOnUse"><stop offset="0.16" stop-color="#ad4b00"/><stop offset="0.16" stop-color="#c55803"/><stop offset="0.56" stop-color="#c55803"/><stop offset="0.56" stop-color="#d88120"/><stop offset="0.87" stop-color="#d88120"/><stop offset="0.87" stop-color="#ed9450"/></linearGradient><linearGradient id="d" x1="1179.49" y1="15.03" x2="1182.12" y2="15.03" xlink:href="#c"/><linearGradient id="e" x1="1178.76" y1="11.57" x2="1182.83" y2="11.57" gradientTransform="translate(-1165.4)" gradientUnits="userSpaceOnUse"><stop offset="0.16" stop-color="#71777a"/><stop offset="0.16" stop-color="#878b8d"/><stop offset="0.56" stop-color="#878b8d"/><stop offset="0.56" stop-color="#9b9fa1"/><stop offset="0.87" stop-color="#9b9fa1"/><stop offset="0.87" stop-color="#aaa"/></linearGradient><linearGradient id="f" x1="1179.49" y1="10.1" x2="1182.12" y2="10.1" xlink:href="#a"/><linearGradient id="g" x1="1179.49" y1="10.1" x2="1182.12" y2="10.1" xlink:href="#c"/><linearGradient id="h" x1="1178.76" y1="10.52" x2="1182.84" y2="10.52" gradientTransform="translate(-1165.4)" gradientUnits="userSpaceOnUse"><stop offset="0.16" stop-color="#b32a0d"/><stop offset="0.16" stop-color="#c83c21"/><stop offset="0.56" stop-color="#c83c21"/><stop offset="0.56" stop-color="#dc5135"/><stop offset="0.87" stop-color="#dc5135"/><stop offset="0.87" stop-color="#eb573e"/></linearGradient><linearGradient id="i" x1="1193.93" y1="14.01" x2="1196.74" y2="14.01" xlink:href="#a"/><linearGradient id="j" x1="1193.93" y1="8.35" x2="1196.73" y2="8.35" xlink:href="#a"/><linearGradient id="k" x1="1193.93" y1="9.06" x2="1196.73" y2="9.06" xlink:href="#c"/><linearGradient id="l" x1="1193.93" y1="10.7" x2="1196.73" y2="10.7" xlink:href="#c"/><linearGradient id="m" x1="1193.16" y1="7.01" x2="1197.48" y2="7.01" xlink:href="#e"/><linearGradient id="n" x1="1193.93" y1="5.44" x2="1196.73" y2="5.44" xlink:href="#a"/><linearGradient id="o" x1="1193.93" y1="5.45" x2="1196.73" y2="5.45" xlink:href="#c"/><linearGradient id="p" x1="1193.16" y1="5.89" x2="1197.5" y2="5.89" xlink:href="#h"/><linearGradient id="q" x1="-56.75" y1="21.14" x2="-56.69" y2="31.92" gradientTransform="translate(85.7)" gradientUnits="userSpaceOnUse"><stop offset="0.19" stop-color="#2150b1"/><stop offset="0.94" stop-color="#6f9bbf"/></linearGradient><linearGradient id="r" x1="-55.47" y1="20.89" x2="-55.42" y2="30.82" xlink:href="#q"/><linearGradient id="s" x1="-59.06" y1="22.47" x2="-59" y2="33.25" xlink:href="#q"/><linearGradient id="t" x1="-57.78" y1="22.22" x2="-57.73" y2="32.15" xlink:href="#q"/><linearGradient id="u" x1="-61.29" y1="23.76" x2="-61.23" y2="34.54" xlink:href="#q"/><linearGradient id="v" x1="-60.01" y1="23.51" x2="-59.96" y2="33.44" xlink:href="#q"/><linearGradient id="w" x1="-56.74" y1="20.09" x2="-56.68" y2="30.87" xlink:href="#q"/><linearGradient id="x" x1="-55.46" y1="19.84" x2="-55.41" y2="29.77" xlink:href="#q"/><linearGradient id="y" x1="-56.74" y1="19.11" x2="-56.68" y2="29.89" xlink:href="#q"/><linearGradient id="z" x1="-55.46" y1="18.86" x2="-55.41" y2="28.79" xlink:href="#q"/><linearGradient id="aa" x1="-59.05" y1="21.43" x2="-58.99" y2="32.2" xlink:href="#q"/><linearGradient id="ab" x1="-57.77" y1="21.18" x2="-57.72" y2="31.1" xlink:href="#q"/><linearGradient id="ac" x1="-59.05" y1="20.44" x2="-58.99" y2="31.22" xlink:href="#q"/><linearGradient id="ad" x1="-57.77" y1="20.19" x2="-57.72" y2="30.12" xlink:href="#q"/><linearGradient id="ae" x1="-61.28" y1="22.71" x2="-61.22" y2="33.48" xlink:href="#q"/><linearGradient id="af" x1="-60" y1="22.46" x2="-59.94" y2="32.38" xlink:href="#q"/><linearGradient id="ag" x1="-61.28" y1="21.72" x2="-61.22" y2="32.5" xlink:href="#q"/><linearGradient id="ah" x1="-60" y1="21.47" x2="-59.94" y2="31.4" xlink:href="#q"/><linearGradient id="ai" x1="-2079.03" y1="19.52" x2="-2078.97" y2="30.3" gradientTransform="matrix(-1, 0, 0, 1, -2063.26, 0)" xlink:href="#q"/><linearGradient id="aj" x1="-2077.75" y1="19.27" x2="-2077.69" y2="29.2" gradientTransform="matrix(-1, 0, 0, 1, -2063.26, 0)" xlink:href="#q"/><linearGradient id="ak" x1="-2079.03" y1="18.54" x2="-2078.97" y2="29.32" gradientTransform="matrix(-1, 0, 0, 1, -2063.26, 0)" xlink:href="#q"/><linearGradient id="al" x1="-2077.75" y1="18.29" x2="-2077.69" y2="28.22" gradientTransform="matrix(-1, 0, 0, 1, -2063.26, 0)" xlink:href="#q"/><linearGradient id="am" x1="-2081.34" y1="20.85" x2="-2081.28" y2="31.63" gradientTransform="matrix(-1, 0, 0, 1, -2063.26, 0)" xlink:href="#q"/><linearGradient id="an" x1="-2080.06" y1="20.6" x2="-2080" y2="30.53" gradientTransform="matrix(-1, 0, 0, 1, -2063.26, 0)" xlink:href="#q"/><linearGradient id="ao" x1="-2081.34" y1="19.87" x2="-2081.28" y2="30.65" gradientTransform="matrix(-1, 0, 0, 1, -2063.26, 0)" xlink:href="#q"/><linearGradient id="ap" x1="-2080.06" y1="19.62" x2="-2080" y2="29.55" gradientTransform="matrix(-1, 0, 0, 1, -2063.26, 0)" xlink:href="#q"/><linearGradient id="aq" x1="-2083.56" y1="22.14" x2="-2083.5" y2="32.92" gradientTransform="matrix(-1, 0, 0, 1, -2063.26, 0)" xlink:href="#q"/><linearGradient id="ar" x1="-2082.28" y1="21.89" x2="-2082.23" y2="31.82" gradientTransform="matrix(-1, 0, 0, 1, -2063.26, 0)" xlink:href="#q"/><linearGradient id="as" x1="-2083.56" y1="21.16" x2="-2083.5" y2="31.94" gradientTransform="matrix(-1, 0, 0, 1, -2063.26, 0)" xlink:href="#q"/><linearGradient id="at" x1="-2082.28" y1="20.91" x2="-2082.23" y2="30.83" gradientTransform="matrix(-1, 0, 0, 1, -2063.26, 0)" xlink:href="#q"/></defs><title>processo-fornecedores</title><g class="a"><ellipse class="b" cx="20" cy="31.8" rx="20" ry="7.8"/><polygon class="c" points="9.7 25.3 9.7 33.9 21.3 27.1 21.3 18.6 9.7 25.3"/><polygon class="d" points="9.7 25.3 9.7 33.9 4 30.6 4 22.1 9.7 25.3"/><polygon class="e" points="9.7 25.1 9.7 25.5 21.6 18.6 21.6 18.2 9.7 25.1"/><polygon class="f" points="9.7 25.1 3.7 21.6 15.6 14.7 21.6 18.2 9.7 25.1"/><path class="g" d="M13.6,18.2l.2-.2h0l.2-.2h.1v-.2h.2v-.3h0v-.2h0l-.2-.2h0l-.3-.2-2.6,1.5,1.7,1A.6.6,0,0,0,13.6,18.2Z"/><polygon class="h" points="20.8 18.3 15.5 15.2 4.5 21.6 9.8 24.6 20.8 18.3"/><path class="g" d="M14.2,19.3a.6.6,0,0,0,.7,0l.2-.2h0l.2-.2h.1v-.2h.2v-.3h0v-.2h0l-.2-.2h0l-1.6-.9-2.6,1.5Z"/><polygon class="i" points="15.5 15.6 4.9 21.8 4.5 21.6 15.5 15.2 20.8 18.3 20.4 18.4 15.5 15.6"/><polygon class="i" points="9.7 25.1 9.7 25.5 3.7 22 3.7 21.6 9.7 25.1"/><polygon class="i" points="15.5 15.2 15.5 15.6 4.9 21.8 4.5 21.6 15.5 15.2"/><polygon class="g" points="7.4 20.8 8.4 20.2 8.9 20.5 7.9 21.1 7.4 20.8"/><polygon class="j" points="8.4 20.7 8.4 21.4 9.4 20.8 9.4 20.1 8.4 20.7"/><polygon class="k" points="8.4 20.7 7.9 20.4 7.9 21.1 8.4 21.4 8.4 20.7"/><polygon class="l" points="7.9 20.4 8.9 19.8 9.4 20.1 8.4 20.7 7.9 20.4"/><polygon class="g" points="8.4 21.4 9.4 20.8 10 21.1 9 21.7 8.4 21.4"/><polygon class="j" points="9.5 21.3 9.5 22 10.5 21.5 10.5 20.7 9.5 21.3"/><polygon class="k" points="9.5 21.3 9 21 9 21.7 9.5 22 9.5 21.3"/><polygon class="l" points="9 21 10 20.4 10.5 20.7 9.5 21.3 9 21"/><polygon class="g" points="6 21.6 7 21.1 7.5 21.4 6.5 21.9 6 21.6"/><polygon class="j" points="7 21.5 7 22.2 8 21.7 8 20.9 7 21.5"/><polygon class="k" points="7 21.5 6.5 21.2 6.5 21.9 7 22.2 7 21.5"/><polygon class="l" points="6.5 21.2 7.5 20.6 8 20.9 7 21.5 6.5 21.2"/><polygon class="g" points="7 22.2 8 21.7 8.6 22 7.5 22.5 7 22.2"/><polygon class="j" points="8.1 22.1 8.1 22.8 9.1 22.3 9.1 21.5 8.1 22.1"/><polygon class="k" points="8.1 22.1 7.5 21.8 7.5 22.5 8.1 22.8 8.1 22.1"/><polygon class="l" points="7.5 21.8 8.6 21.2 9.1 21.5 8.1 22.1 7.5 21.8"/><polygon class="g" points="9.5 22 10.5 21.5 11 21.8 10 22.3 9.5 22"/><polygon class="j" points="10.5 21.9 10.5 22.6 11.5 22.1 11.5 21.3 10.5 21.9"/><polygon class="k" points="10.5 21.9 10 21.6 10 22.3 10.5 22.6 10.5 21.9"/><polygon class="l" points="10 21.6 11 21 11.5 21.3 10.5 21.9 10 21.6"/><polygon class="g" points="10.5 22.6 11.5 22.1 12 22.4 11 22.9 10.5 22.6"/><polygon class="j" points="11.6 22.5 11.6 23.2 12.6 22.7 12.6 21.9 11.6 22.5"/><polygon class="k" points="11.6 22.5 11 22.2 11 22.9 11.6 23.2 11.6 22.5"/><polygon class="l" points="11 22.2 12 21.6 12.6 21.9 11.6 22.5 11 22.2"/><polygon class="g" points="8.1 22.8 9.1 22.3 9.6 22.6 8.6 23.1 8.1 22.8"/><polygon class="j" points="9.1 22.7 9.1 23.4 10.1 22.9 10.1 22.1 9.1 22.7"/><polygon class="k" points="9.1 22.7 8.6 22.4 8.6 23.1 9.1 23.4 9.1 22.7"/><polygon class="l" points="8.6 22.4 9.6 21.8 10.1 22.1 9.1 22.7 8.6 22.4"/><polygon class="g" points="9.1 23.4 10.1 22.9 10.6 23.2 9.6 23.7 9.1 23.4"/><polygon class="j" points="10.2 23.3 10.2 24.1 11.2 23.5 11.2 22.7 10.2 23.3"/><polygon class="k" points="10.2 23.3 9.6 23 9.6 23.7 10.2 24.1 10.2 23.3"/><polygon class="l" points="9.6 23 10.6 22.4 11.2 22.7 10.2 23.3 9.6 23"/><polygon class="c" points="24.4 26.3 24.4 34.8 36 28.1 36 19.5 24.4 26.3"/><polygon class="d" points="24.4 26.3 24.4 34.8 18.7 31.5 18.7 23 24.4 26.3"/><polygon class="e" points="24.4 26 24.4 26.4 36.3 19.5 36.3 19.1 24.4 26"/><polygon class="f" points="24.4 26 18.4 22.5 30.3 15.6 36.3 19.1 24.4 26"/><polygon class="h" points="35.5 19.2 30.2 16.1 19.2 22.5 24.5 25.5 35.5 19.2"/><polygon class="i" points="30.2 16.5 19.6 22.7 19.2 22.5 30.2 16.1 35.5 19.2 35.1 19.4 30.2 16.5"/><polygon class="i" points="24.4 26 24.4 26.4 18.4 22.9 18.4 22.5 24.4 26"/><polygon class="i" points="30.2 16.1 30.2 16.5 19.6 22.7 19.2 22.5 30.2 16.1"/><path class="m" d="M13.7,17.9v.7c0,.4.4.7,1,.9h2.6v-.7c0-.3-.3-.6-.8-.8H14.7C14.1,17.1,13.7,17.5,13.7,17.9Z"/><path class="n" d="M14.7,17h0v2.5h0c-.6-.2-1-.5-1-.9v-.7C13.7,17.5,14.1,17.1,14.7,17Z"/><path class="k" d="M15.7,16.9h.8c.5.2.8.5.8.8v.7H15.7Z"/><path class="o" d="M16.7,17.2c.3.2.5.4.5.7v.7h-.5Z"/><path class="p" d="M17.2,17.8c0,.3-.3.6-.7.8l-.9.2h-.1c-1,0-1.8-.5-1.8-1h0c.1-.5.8-.9,1.8-.9a1.9,1.9,0,0,1,1.7.8Z"/><path class="g" d="M17.2,17.5h-.2v.2h-.1l-.2.2h0l-.2.2a.6.6,0,0,1-.7,0h0l-1.9-1.1c.1-.5.8-.9,1.8-.9A1.9,1.9,0,0,1,17.2,17.5Z"/><path class="q" d="M16.4,18.2H14.2v-.2h0V13.5l.2.2h.1l.6.2h1.3a.7.7,0,0,0,.4-.4v4.2A.6.6,0,0,1,16.4,18.2Z"/><path class="r" d="M14.1,13.6h0V11.4h2.6v2.1a.7.7,0,0,1-.4.4H15.1l-.6-.2h-.1l-.2-.2Z"/><path class="s" d="M16.7,12.9l-.2.2h-.1l-.6.2H14.5a.7.7,0,0,1-.4-.4v.9a.7.7,0,0,0,.4.4h1.3l.6-.2h.1l.2-.2v-1h-.1Z"/><path class="t" d="M16.7,14.4l-.2.2h-.1l-.6.2H14.5a.7.7,0,0,1-.4-.4v.9a.7.7,0,0,0,.4.4h1.3l.6-.2h.1l.2-.2v-1h-.1Z"/><rect class="u" x="14.1" y="11.5" height="0.77"/><path class="u" d="M16.8,12.4v-.9h0v.7A.4.4,0,0,1,16.8,12.4Z"/><polygon class="v" points="16.3 7.3 16.3 7.2 16.4 7.3 16.3 7.3 16.3 7.3"/><polygon class="v" points="14.5 6.3 14.5 6.2 14.6 6.3 14.5 6.3 14.5 6.3"/><path class="w" d="M13.4,11.2v-.3h4.1v.4a1.1,1.1,0,0,1-.6.7l-.4.2a3.4,3.4,0,0,1-1.6.1l-.9-.3h-.2l-.3-.4Z"/><path class="x" d="M14,10a3.2,3.2,0,0,1,2.9,0c.8.5.8,1.2,0,1.7a3.2,3.2,0,0,1-2.9,0C13.2,11.2,13.2,10.5,14,10Z"/><path class="y" d="M14.1,10.8h0V8.7h2.6v2.1a.7.7,0,0,1-.4.4H15.1l-.6-.2h-.1l-.2-.2Z"/><path class="z" d="M14.5,8.1a2.1,2.1,0,0,1,1.9,0c.5.3.5.8,0,1.1a2.1,2.1,0,0,1-1.9,0C14,8.9,14,8.4,14.5,8.1Z"/><path class="aa" d="M16.3,8.2a1.9,1.9,0,0,0-1.7,0c-.5.3-.5.7,0,.9a1.9,1.9,0,0,0,1.7,0C16.7,8.9,16.8,8.5,16.3,8.2Z"/><path class="ab" d="M14.6,8.2a1.9,1.9,0,0,1,1.6-.1L14.9,9.3h-.3C14.1,8.9,14.2,8.5,14.6,8.2Z"/><polygon class="ac" points="16.3 7.4 16.3 9.2 16.4 9.2 16.4 7.4 16.3 7.4"/><polygon class="ad" points="16.3 7.4 16.3 7.4 16.3 9.2 16.3 9.2 16.3 7.4"/><polygon class="ac" points="14.5 6.4 14.5 8.2 14.6 8.2 14.6 6.4 14.5 6.4"/><polygon class="ad" points="14.5 6.4 14.5 6.4 14.5 8.2 14.5 8.2 14.5 6.4"/><path class="ae" d="M16.8,9.3h0l-.2.2h-.1l-.6.2H14.5a.7.7,0,0,1-.4-.4v.9a.7.7,0,0,0,.4.4h1.3l.6-.2h.1l.2-.2v-1Z"/><polygon class="af" points="16.3 7.1 16.3 7.5 16.4 7.4 16.4 7 16.3 7.1"/><polygon class="ag" points="16.3 7.1 16.2 7 16.2 7.4 16.3 7.5 16.3 7.1"/><polygon class="ah" points="16.2 7 16.3 6.9 16.4 7 16.3 7.1 16.2 7"/><polygon class="af" points="14.5 6.1 14.5 6.5 14.6 6.5 14.6 6 14.5 6.1"/><polygon class="ag" points="14.5 6.1 14.4 6 14.4 6.5 14.5 6.5 14.5 6.1"/><polygon class="ah" points="14.4 6 14.5 6 14.6 6 14.5 6.1 14.4 6"/><polygon class="ai" points="15.9 11.5 15.9 12 16 12 16 11.4 15.9 11.5"/><polygon class="aj" points="15.9 11.5 15.8 11.4 15.8 12 15.9 12 15.9 11.5"/><polygon class="ai" points="16.9 11.1 16.9 11.7 17 11.7 17 11.1 16.9 11.1"/><polygon class="aj" points="16.9 11.1 16.9 11.1 16.9 11.7 16.9 11.7 16.9 11.1"/><polygon class="ai" points="17.4 10.4 17.4 11 17.5 11 17.5 10.4 17.4 10.4"/><polygon class="aj" points="17.4 10.4 17.3 10.4 17.3 11 17.4 11 17.4 10.4"/><polygon class="ai" points="17 9.7 17 10.3 17 10.2 17 9.7 17 9.7"/><polygon class="aj" points="17 9.7 16.9 9.6 16.9 10.2 17 10.3 17 9.7"/><polygon class="ai" points="15 11.5 15 12 15 12 15 11.4 15 11.5"/><polygon class="aj" points="15 11.5 15.1 11.4 15.1 12 15 12 15 11.5"/><polygon class="ai" points="13.9 11.1 13.9 11.7 13.9 11.7 13.9 11.1 13.9 11.1"/><polygon class="aj" points="13.9 11.1 14 11.1 14 11.7 13.9 11.7 13.9 11.1"/><polygon class="ai" points="13.5 10.4 13.5 11 13.4 11 13.4 10.4 13.5 10.4"/><polygon class="aj" points="13.5 10.4 13.6 10.4 13.6 11 13.5 11 13.5 10.4"/><polygon class="ai" points="13.9 9.7 13.9 10.3 13.8 10.2 13.8 9.7 13.9 9.7"/><polygon class="aj" points="13.9 9.7 14 9.6 14 10.2 13.9 10.3 13.9 9.7"/><path class="ak" d="M17.5,10.2h0a1.1,1.1,0,0,0-.6-.7h-.1v.2h0a.9.9,0,0,1,.5.7h0a.9.9,0,0,1-.5.7l-.6.2H14.7l-.6-.2a.9.9,0,0,1-.5-.7h0a.9.9,0,0,1,.5-.6h.1V9.5H14a1.1,1.1,0,0,0-.6.7h0a1,1,0,0,0,.6.8,3.2,3.2,0,0,0,2.9,0,1.1,1.1,0,0,0,.6-.7.8.8,0,0,0,0-.2h0Z"/><path class="al" d="M16.9,9.4h-.1v.2h0a.9.9,0,0,1,.5.7h0a.9.9,0,0,1-.5.6,2.8,2.8,0,0,1-1.4.3,2.8,2.8,0,0,1-1.4-.3.9.9,0,0,1-.5-.7h0a.9.9,0,0,1,.5-.7h.1V9.3H14a1,1,0,0,0-.6.8h0a1.1,1.1,0,0,0,.6.8l.7.3h1.6l.7-.3a1.1,1.1,0,0,0,.6-.7h0A1,1,0,0,0,16.9,9.4Z"/><path class="g" d="M28.6,18.9l.2-.2h0l.2-.2h.1v-.2h.2v-.3h0v-.2h0l-.2-.2h0l-.3-.2L26.2,18l1.7,1A.6.6,0,0,0,28.6,18.9Z"/><path class="g" d="M29.1,20.1a.6.6,0,0,0,.7,0l.2-.2h0l.2-.2h.1v-.2h.2v-.3h0V18h0l-.2-.2h0l-1.6-.9-2.6,1.5Z"/><polygon class="am" points="26.6 18.2 26.6 18.6 29.1 17.1 29.1 16.8 26.6 18.2"/><path class="m" d="M28.1,18.6v.7c0,.4.4.8,1.1,1h2.7v-.9c0-.4-.3-.7-.8-.9H29.1C28.5,17.9,28.1,18.2,28.1,18.6Z"/><path class="n" d="M29.1,17.7h0v2.6h0c-.6-.2-1.1-.5-1.1-1v-.7C28.1,18.2,28.5,17.9,29.1,17.7Z"/><path class="k" d="M30.3,17.6H31c.5.2.8.5.8.9v.9H30.3Z"/><path class="o" d="M31.3,17.9c.3.2.6.4.6.7v.9h-.6Z"/><path class="p" d="M28.1,18.5c0-.6.8-1.1,1.9-1.1s1.9.5,1.9,1.1S31,19.6,30,19.6,28.1,19.1,28.1,18.5Z"/><path class="g" d="M29.6,18.9h1.2l.2-.3v-.3a.5.5,0,0,1,0-.4l-1-.2c-.9,0-1.7.4-1.8.9l1.1.6Z"/><path class="an" d="M31,19H28.6v-.2h0V9l.2.3H29l.6.2H31a.7.7,0,0,0,.4-.5v9.4A.6.6,0,0,1,31,19Z"/><path class="ao" d="M28.6,9.1h0V6.9h2.8V9.1a.7.7,0,0,1-.4.5H29.6L29,9.6h-.1l-.2-.3Z"/><path class="ap" d="M31.3,8.4l-.2.3H31l-.6.2H29a.7.7,0,0,1-.4-.5v.9a.7.7,0,0,0,.4.5h1.4l.6-.2h.1l.2-.3v-1h-.1Z"/><path class="aq" d="M31.3,10l-.2.3H31l-.6.2H29a.7.7,0,0,1-.4-.5v.9a.7.7,0,0,0,.4.5h1.4l.6-.2h.1l.2-.3v-1h-.1Z"/><rect class="u" x="28.6" y="6.9" height="0.82"/><path class="u" d="M31.4,7.8V6.9h0v.8A.4.4,0,0,1,31.4,7.8Z"/><polygon class="v" points="30.8 2.4 30.9 2.4 31 2.4 30.9 2.5 30.8 2.4"/><polygon class="v" points="28.9 1.4 29 1.3 29.1 1.4 29 1.4 28.9 1.4"/><path class="ar" d="M27.8,6.6V6.3h4.3v.4a1.1,1.1,0,0,1-.6.7l-.4.2a3.6,3.6,0,0,1-1.7.1l-1-.3h-.2l-.3-.4Z"/><path class="x" d="M28.4,5.4a3.4,3.4,0,0,1,3.1,0c.9.5.9,1.3,0,1.8a3.4,3.4,0,0,1-3.1,0C27.6,6.7,27.6,5.9,28.4,5.4Z"/><path class="as" d="M28.6,6.2h0V4h2.8V6.2a.7.7,0,0,1-.4.5H29.6L29,6.7h-.1l-.2-.3Z"/><path class="z" d="M29,3.4a2.2,2.2,0,0,1,2,0c.6.3.6.8,0,1.2a2.2,2.2,0,0,1-2,0C28.4,4.2,28.4,3.7,29,3.4Z"/><path class="aa" d="M30.9,3.4a2,2,0,0,0-1.8,0c-.5.3-.5.7,0,1a2,2,0,0,0,1.8,0C31.4,4.1,31.4,3.7,30.9,3.4Z"/><path class="ab" d="M29.1,3.4a2,2,0,0,1,1.7-.1L29.4,4.6h-.3C28.6,4.2,28.6,3.7,29.1,3.4Z"/><polygon class="ac" points="30.9 2.6 30.9 4.5 31 4.5 31 2.6 30.9 2.6"/><polygon class="ad" points="30.9 2.6 30.8 2.6 30.8 4.5 30.9 4.5 30.9 2.6"/><polygon class="ac" points="29 1.6 29 3.5 29.1 3.4 29.1 1.5 29 1.6"/><polygon class="ad" points="29 1.6 28.9 1.5 28.9 3.4 29 3.5 29 1.6"/><path class="at" d="M31.4,4.6h-.1l-.2.3H31l-.6.2H29a.7.7,0,0,1-.4-.5v.9A.7.7,0,0,0,29,6h1.4L31,6h.1l.2-.3v-1Z"/><polygon class="af" points="30.9 2.2 30.9 2.7 31 2.6 31 2.1 30.9 2.2"/><polygon class="ag" points="30.9 2.2 30.8 2.1 30.8 2.6 30.9 2.7 30.9 2.2"/><polygon class="ah" points="30.8 2.1 30.9 2.1 31 2.1 30.9 2.2 30.8 2.1"/><polygon class="af" points="29 1.2 29 1.7 29.1 1.6 29.1 1.1 29 1.2"/><polygon class="ag" points="29 1.2 28.9 1.1 28.9 1.6 29 1.7 29 1.2"/><polygon class="ah" points="28.9 1.1 29 1.1 29.1 1.1 29 1.2 28.9 1.1"/><polygon class="ai" points="30.5 6.9 30.5 7.5 30.5 7.5 30.5 6.9 30.5 6.9"/><polygon class="aj" points="30.5 6.9 30.4 6.9 30.4 7.5 30.5 7.5 30.5 6.9"/><polygon class="ai" points="31.6 6.5 31.6 7.1 31.6 7.1 31.6 6.5 31.6 6.5"/><polygon class="aj" points="31.6 6.5 31.5 6.5 31.5 7.1 31.6 7.1 31.6 6.5"/><polygon class="ai" points="32 5.8 32 6.4 32.1 6.4 32.1 5.7 32 5.8"/><polygon class="aj" points="32 5.8 32 5.7 32 6.4 32 6.4 32 5.8"/><polygon class="ai" points="31.6 5 31.6 5.6 31.7 5.6 31.7 5 31.6 5"/><polygon class="aj" points="31.6 5 31.5 5 31.5 5.6 31.6 5.6 31.6 5"/><polygon class="ai" points="29.5 6.9 29.5 7.5 29.5 7.5 29.5 6.9 29.5 6.9"/><polygon class="aj" points="29.5 6.9 29.6 6.9 29.6 7.5 29.5 7.5 29.5 6.9"/><polygon class="ai" points="28.4 6.5 28.4 7.1 28.3 7.1 28.3 6.5 28.4 6.5"/><polygon class="aj" points="28.4 6.5 28.5 6.5 28.5 7.1 28.4 7.1 28.4 6.5"/><polygon class="ai" points="27.9 5.8 27.9 6.4 27.8 6.4 27.8 5.7 27.9 5.8"/><polygon class="aj" points="27.9 5.8 28 5.7 28 6.4 27.9 6.4 27.9 5.8"/><polygon class="ai" points="28.3 5 28.3 5.6 28.3 5.6 28.3 5 28.3 5"/><polygon class="aj" points="28.3 5 28.4 5 28.4 5.6 28.3 5.6 28.3 5"/><path class="au" d="M32.1,5.6h0a1.2,1.2,0,0,0-.6-.7h-.1V5h0a1,1,0,0,1,.6.7h0a.9.9,0,0,1-.6.7l-.6.2H29.2l-.6-.3a1,1,0,0,1-.6-.8h0a1,1,0,0,1,.5-.7h.1V4.8h-.1a1.1,1.1,0,0,0-.6.7h0a1.1,1.1,0,0,0,.6.9,3.4,3.4,0,0,0,3.1,0,1.1,1.1,0,0,0,.6-.7.9.9,0,0,0,0-.2h0Z"/><path class="al" d="M31.5,4.7h-.1v.2h0a1,1,0,0,1,.6.7h0a1,1,0,0,1-.5.7,3,3,0,0,1-1.4.3,3,3,0,0,1-1.5-.4,1,1,0,0,1-.6-.7h0a.9.9,0,0,1,.6-.7h.1V4.6h-.1a1.1,1.1,0,0,0-.6.9h0a1.1,1.1,0,0,0,.6.8l.7.3h1.7l.7-.3a1.1,1.1,0,0,0,.6-.7h0A1,1,0,0,0,31.5,4.7Z"/><polygon class="av" points="31.8 21.6 31.8 33.7 31.5 33.9 31.4 34 31.4 34 31.2 34.1 23.7 38.5 23.6 38.5 23.5 38.5 23.4 38.6 22.9 38.9 22.9 26.8 22.9 26.7 23.4 26.4 23.5 26.4 23.6 26.4 23.7 26.3 31.2 21.9 31.4 21.9 31.4 21.8 31.5 21.8 31.8 21.6"/><polygon class="aw" points="23.5 17 23.5 38.5 23.4 38.6 23.4 17 23.5 17"/><polygon class="ax" points="23.7 17 23.7 38.5 23.6 38.5 23.6 17 23.7 17"/><polygon class="aw" points="24.5 17.6 24.5 38 24.4 38 24.4 17.6 24.5 17.6"/><polygon class="ax" points="24.7 17.6 24.7 37.9 24.6 38 24.6 17.6 24.7 17.6"/><polygon class="aw" points="25.5 18.2 25.5 37.4 25.4 37.5 25.4 18.2 25.5 18.2"/><polygon class="ax" points="25.6 18.2 25.6 37.3 25.5 37.4 25.5 18.2 25.6 18.2"/><polygon class="aw" points="26.5 18.8 26.5 36.8 26.4 36.9 26.4 18.8 26.5 18.8"/><polygon class="ax" points="26.6 18.8 26.6 36.8 26.5 36.8 26.5 18.8 26.6 18.8"/><polygon class="aw" points="27.4 19.4 27.4 36.3 27.3 36.3 27.3 19.4 27.4 19.4"/><polygon class="ax" points="27.6 19.4 27.6 36.2 27.5 36.3 27.5 19.4 27.6 19.4"/><polygon class="aw" points="28.4 20 28.4 35.7 28.3 35.8 28.3 20.1 28.4 20"/><polygon class="ax" points="28.6 20 28.6 35.6 28.5 35.7 28.5 20 28.6 20"/><polygon class="aw" points="29.4 20.6 29.4 35.1 29.3 35.2 29.3 20.7 29.4 20.6"/><polygon class="ax" points="29.6 20.6 29.6 35.1 29.5 35.1 29.5 20.6 29.6 20.6"/><polygon class="aw" points="30.4 21.2 30.4 34.6 30.3 34.6 30.3 21.3 30.4 21.2"/><polygon class="ax" points="30.5 21.2 30.5 34.5 30.4 34.6 30.4 21.2 30.5 21.2"/><polygon class="aw" points="31.4 21.9 31.4 34 31.2 34.1 31.2 21.9 31.4 21.9"/><polygon class="ax" points="31.5 21.8 31.5 33.9 31.4 34 31.4 21.8 31.5 21.8"/><polygon class="d" points="22.9 26.8 22.9 38.9 22.5 38.7 22.4 38.6 22.3 38.6 22.2 38.5 12 32.5 12 20.4 12.2 20.5 12.4 20.6 12.4 20.6 12.5 20.7 22.2 26.4 22.3 26.4 22.4 26.5 22.5 26.5 22.9 26.8"/><polygon class="aw" points="22.3 16.6 22.3 38.6 22.2 38.5 22.2 16.6 22.3 16.6"/><polygon class="ay" points="22.5 16.6 22.5 38.7 22.4 38.6 22.4 16.6 22.5 16.6"/><polygon class="aw" points="21.3 17 21.3 38 21.2 38 21.2 17 21.3 17"/><polygon class="ay" points="21.5 17 21.5 38.1 21.4 38 21.4 17 21.5 17"/><polygon class="aw" points="20.3 17.4 20.3 37.4 20.2 37.4 20.2 17.4 20.3 17.4"/><polygon class="ay" points="20.5 17.5 20.5 37.5 20.4 37.5 20.4 17.4 20.5 17.5"/><polygon class="aw" points="19.3 17.8 19.3 36.9 19.2 36.8 19.2 17.8 19.3 17.8"/><polygon class="ay" points="19.5 17.9 19.5 36.9 19.4 36.9 19.4 17.8 19.5 17.9"/><polygon class="aw" points="18.3 18.2 18.3 36.3 18.2 36.2 18.2 18.2 18.3 18.2"/><polygon class="ay" points="18.5 18.3 18.5 36.4 18.4 36.3 18.4 18.2 18.5 18.3"/><polygon class="aw" points="17.3 18.6 17.3 35.7 17.2 35.6 17.2 18.6 17.3 18.6"/><polygon class="ay" points="17.5 18.7 17.5 35.8 17.4 35.7 17.4 18.6 17.5 18.7"/><polygon class="aw" points="16.3 19 16.3 35.1 16.2 35 16.2 19 16.3 19"/><polygon class="ay" points="16.5 19.1 16.5 35.2 16.4 35.1 16.4 19 16.5 19.1"/><polygon class="aw" points="15.3 19.4 15.3 34.5 15.2 34.5 15.2 19.4 15.3 19.4"/><polygon class="ay" points="15.5 19.5 15.5 34.6 15.4 34.5 15.4 19.4 15.5 19.5"/><polygon class="aw" points="14.3 19.8 14.3 33.9 14.2 33.9 14.2 19.8 14.3 19.8"/><polygon class="ay" points="14.5 19.9 14.5 34 14.4 34 14.4 19.8 14.5 19.9"/><polygon class="aw" points="13.3 20.2 13.3 33.3 13.2 33.3 13.2 20.1 13.3 20.2"/><polygon class="ay" points="13.5 20.3 13.5 33.4 13.4 33.4 13.4 20.2 13.5 20.3"/><polygon class="aw" points="12.4 20.6 12.4 32.8 12.2 32.7 12.2 20.5 12.4 20.6"/><polygon class="ay" points="12.5 20.7 12.5 32.9 12.4 32.8 12.4 20.6 12.5 20.7"/><polygon class="e" points="22.9 26.5 22.9 26.9 32.2 21.6 32.2 21.2 22.9 26.5"/><polygon class="f" points="22.9 26.5 11.6 19.9 20.8 14.6 32.2 21.2 22.9 26.5"/><polygon class="h" points="31.3 21.2 20.8 15 12.5 19.9 23 26 31.3 21.2"/><polygon class="i" points="20.8 15.4 12.8 20 12.5 19.9 20.8 15 31.3 21.2 31 21.4 20.8 15.4"/><polygon class="i" points="22.9 26.5 22.9 26.9 11.6 20.3 11.6 19.9 22.9 26.5"/><polygon class="i" points="20.8 15 20.8 15.4 12.8 20 12.5 19.9 20.8 15"/><polygon class="az" points="7.4 25.8 7.4 26.5 5.5 25.5 5.5 24.8 7.4 25.8"/><polygon class="ba" points="5.7 25.4 5.7 25 7.2 25.9 7.2 26.3 5.7 25.4"/><polygon class="bb" points="5.8 25.3 5.8 25 5.7 25 5.7 25.4 7.2 26.3 7.2 26.2 5.8 25.3"/><polygon class="bc" points="5.8 25.3 5.7 25.4 7.2 26.3 7.2 26.2 5.8 25.3"/><polygon class="az" points="7.4 26.4 7.4 27 5.5 26 5.5 25.3 7.4 26.4"/><polygon class="ba" points="5.7 25.9 5.7 25.5 7.2 26.4 7.2 26.8 5.7 25.9"/><polygon class="bb" points="5.8 25.9 5.8 25.6 5.7 25.5 5.7 25.9 7.2 26.8 7.2 26.7 5.8 25.9"/><polygon class="bc" points="5.8 25.9 5.7 25.9 7.2 26.8 7.2 26.7 5.8 25.9"/><polygon class="az" points="7.4 26.9 7.4 27.6 5.5 26.5 5.5 25.8 7.4 26.9"/><polygon class="ba" points="5.7 26.5 5.7 26.1 7.2 27 7.2 27.4 5.7 26.5"/><polygon class="bb" points="5.8 26.4 5.8 26.1 5.7 26.1 5.7 26.5 7.2 27.4 7.2 27.3 5.8 26.4"/><polygon class="bc" points="5.8 26.4 5.7 26.5 7.2 27.4 7.2 27.3 5.8 26.4"/><polygon class="az" points="7.4 27.4 7.4 28.1 5.5 27.1 5.5 26.4 7.4 27.4"/><polygon class="ba" points="5.7 27 5.7 26.6 7.2 27.5 7.2 27.9 5.7 27"/><polygon class="bb" points="5.8 26.9 5.8 26.6 5.7 26.6 5.7 27 7.2 27.9 7.2 27.8 5.8 26.9"/><polygon class="bc" points="5.8 26.9 5.7 27 7.2 27.9 7.2 27.8 5.8 26.9"/><polygon class="az" points="7.4 28 7.4 28.6 5.5 27.6 5.5 26.9 7.4 28"/><polygon class="ba" points="5.7 27.5 5.7 27.1 7.2 28 7.2 28.4 5.7 27.5"/><polygon class="bb" points="5.8 27.5 5.8 27.2 5.7 27.1 5.7 27.5 7.2 28.4 7.2 28.3 5.8 27.5"/><polygon class="bc" points="5.8 27.5 5.7 27.5 7.2 28.4 7.2 28.3 5.8 27.5"/><polygon class="bd" points="28.2 27.1 28.2 28.4 29.8 27.5 29.8 26.2 28.2 27.1"/><polygon class="be" points="29.6 27.3 29.6 26.6 28.5 27.2 28.5 28 29.6 27.3"/><polygon class="bf" points="29.4 27.2 29.6 27.3 28.5 28 28.5 27.8 29.4 27.2"/><polygon class="bd" points="29.6 26.3 29.6 27.6 31 26.8 31 25.5 29.6 26.3"/><polygon class="bg" points="30.8 26.6 30.8 25.9 29.8 26.5 29.8 27.2 30.8 26.6"/><polygon class="bf" points="30.6 26.5 30.8 26.6 29.8 27.2 29.8 27 30.6 26.5"/><polygon class="bd" points="25.9 28.4 25.9 29.7 27.5 28.8 27.5 27.5 25.9 28.4"/><polygon class="bh" points="27.3 28.6 27.3 27.9 26.1 28.6 26.1 29.3 27.3 28.6"/><polygon class="bf" points="27.1 28.5 27.3 28.6 26.1 29.3 26.1 29.1 27.1 28.5"/><polygon class="bd" points="27.3 27.6 27.3 28.9 28.7 28.1 28.7 26.8 27.3 27.6"/><polygon class="bi" points="28.5 28 28.5 27.2 27.5 27.8 27.5 28.5 28.5 28"/><polygon class="bf" points="28.3 27.9 28.5 28 27.5 28.5 27.5 28.3 28.3 27.9"/><polygon class="bd" points="23.7 29.7 23.7 31 25.3 30.1 25.3 28.8 23.7 29.7"/><polygon class="bj" points="25.1 29.9 25.1 29.2 23.9 29.9 23.9 30.6 25.1 29.9"/><polygon class="bf" points="24.9 29.8 25.1 29.9 23.9 30.6 23.9 30.4 24.9 29.8"/><polygon class="bd" points="25.1 28.9 25.1 30.2 26.5 29.4 26.5 28.1 25.1 28.9"/><polygon class="bk" points="26.2 29.3 26.2 28.5 25.3 29.1 25.3 29.8 26.2 29.3"/><polygon class="bf" points="26.1 29.2 26.2 29.3 25.3 29.8 25.3 29.6 26.1 29.2"/><polygon class="e" points="15.2 19.4 17.3 19.1 17.3 20.7 15.2 19.4"/><polygon class="l" points="21.9 16.5 19.8 16.8 15.2 19.4 17.3 19.1 21.9 16.5"/><polygon class="l" points="21.3 16.6 21.5 16.7 17.7 18.9 17.5 18.8 21.3 16.6"/><polygon class="i" points="21.9 18.1 17.3 20.7 17.3 19.1 21.9 16.5 21.9 18.1"/><polygon class="e" points="17.3 20.7 19.5 20.3 19.5 21.9 17.3 20.7"/><polygon class="l" points="24 17.7 21.9 18.1 17.3 20.7 19.5 20.3 24 17.7"/><polygon class="l" points="23.5 17.8 23.7 17.9 19.8 20.1 19.6 20.1 23.5 17.8"/><polygon class="i" points="24 19.3 19.5 21.9 19.5 20.3 24 17.7 24 19.3"/><polygon class="e" points="19.5 21.9 21.6 21.5 21.6 23.1 19.5 21.9"/><polygon class="l" points="26.1 18.9 24 19.3 19.5 21.9 21.6 21.5 26.1 18.9"/><polygon class="l" points="25.6 19.1 25.8 19.1 21.9 21.4 21.7 21.3 25.6 19.1"/><polygon class="i" points="26.1 20.5 21.6 23.1 21.6 21.5 26.1 18.9 26.1 20.5"/><polygon class="e" points="21.6 23.1 23.7 22.8 23.7 24.4 21.6 23.1"/><polygon class="l" points="28.2 20.2 26.1 20.5 21.6 23.1 23.7 22.8 28.2 20.2"/><polygon class="l" points="27.7 20.3 27.9 20.4 24 22.6 23.8 22.5 27.7 20.3"/><polygon class="i" points="28.2 21.8 23.7 24.4 23.7 22.8 28.2 20.2 28.2 21.8"/><polygon class="bd" points="28.2 26.1 28.2 27.3 29.8 26.4 29.8 25.1 28.2 26.1"/><polygon class="bl" points="29.6 26.3 29.6 25.5 28.5 26.2 28.5 26.9 29.6 26.3"/><polygon class="bf" points="29.4 26.2 29.6 26.3 28.5 26.9 28.5 26.7 29.4 26.2"/><polygon class="bd" points="29.6 25.3 29.6 26.5 31 25.7 31 24.4 29.6 25.3"/><polygon class="bm" points="30.8 25.6 30.8 24.9 29.8 25.4 29.8 26.1 30.8 25.6"/><polygon class="bf" points="30.6 25.5 30.8 25.6 29.8 26.1 29.8 25.9 30.6 25.5"/><polygon class="bd" points="28.2 25.1 28.2 26.3 29.8 25.4 29.8 24.1 28.2 25.1"/><polygon class="bn" points="29.6 25.3 29.6 24.6 28.5 25.2 28.5 25.9 29.6 25.3"/><polygon class="bf" points="29.4 25.2 29.6 25.3 28.5 25.9 28.5 25.7 29.4 25.2"/><polygon class="bd" points="29.6 24.3 29.6 25.6 31 24.7 31 23.5 29.6 24.3"/><polygon class="bo" points="30.8 24.6 30.8 23.9 29.8 24.4 29.8 25.1 30.8 24.6"/><polygon class="bf" points="30.6 24.5 30.8 24.6 29.8 25.1 29.8 24.9 30.6 24.5"/><polygon class="bd" points="25.9 27.4 25.9 28.7 27.5 27.7 27.5 26.5 25.9 27.4"/><polygon class="bp" points="27.3 27.6 27.3 26.9 26.2 27.5 26.2 28.2 27.3 27.6"/><polygon class="bf" points="27.1 27.5 27.3 27.6 26.2 28.2 26.2 28.1 27.1 27.5"/><polygon class="bd" points="27.3 26.6 27.3 27.9 28.7 27.1 28.7 25.8 27.3 26.6"/><polygon class="bq" points="28.5 26.9 28.5 26.2 27.5 26.7 27.5 27.5 28.5 26.9"/><polygon class="bf" points="28.3 26.8 28.5 26.9 27.5 27.5 27.5 27.3 28.3 26.8"/><polygon class="bd" points="25.9 26.4 25.9 27.7 27.5 26.8 27.5 25.5 25.9 26.4"/><polygon class="br" points="27.3 26.6 27.3 25.9 26.2 26.5 26.2 27.3 27.3 26.6"/><polygon class="bf" points="27.1 26.5 27.3 26.6 26.2 27.3 26.2 27.1 27.1 26.5"/><polygon class="bd" points="27.3 25.6 27.3 26.9 28.7 26.1 28.7 24.8 27.3 25.6"/><polygon class="bs" points="28.5 25.9 28.5 25.2 27.5 25.8 27.5 26.5 28.5 25.9"/><polygon class="bf" points="28.3 25.8 28.5 25.9 27.5 26.5 27.5 26.3 28.3 25.8"/><polygon class="bd" points="23.7 28.7 23.7 29.9 25.3 29 25.3 27.7 23.7 28.7"/><polygon class="bt" points="25.1 28.9 25.1 28.2 23.9 28.8 23.9 29.5 25.1 28.9"/><polygon class="bf" points="24.9 28.8 25.1 28.9 23.9 29.5 23.9 29.3 24.9 28.8"/><polygon class="bd" points="25.1 27.9 25.1 29.2 26.5 28.3 26.5 27.1 25.1 27.9"/><polygon class="bu" points="26.2 28.2 26.2 27.5 25.3 28 25.3 28.7 26.2 28.2"/><polygon class="bf" points="26.1 28.1 26.2 28.2 25.3 28.7 25.3 28.5 26.1 28.1"/><polygon class="bd" points="23.7 27.7 23.7 29 25.3 28 25.3 26.8 23.7 27.7"/><polygon class="bv" points="25.1 27.9 25.1 27.2 23.9 27.8 23.9 28.5 25.1 27.9"/><polygon class="bf" points="24.9 27.8 25.1 27.9 23.9 28.5 23.9 28.4 24.9 27.8"/><polygon class="bd" points="25.1 26.9 25.1 28.2 26.5 27.4 26.5 26.1 25.1 26.9"/><polygon class="bw" points="26.2 27.2 26.2 26.5 25.3 27 25.3 27.8 26.2 27.2"/><polygon class="bf" points="26.1 27.1 26.2 27.2 25.3 27.8 25.3 27.6 26.1 27.1"/><polygon class="bd" points="16.5 25.5 16.5 26.8 14.9 25.8 14.9 24.6 16.5 25.5"/><polygon class="bx" points="15.2 25.7 15.2 25 16.3 25.6 16.3 26.3 15.2 25.7"/><polygon class="bf" points="15.3 25.6 15.2 25.7 16.3 26.3 16.3 26.2 15.3 25.6"/><polygon class="bd" points="15.2 24.7 15.2 26 13.7 25.2 13.7 23.9 15.2 24.7"/><polygon class="by" points="14 25 14 24.3 14.9 24.8 14.9 25.6 14 25"/><polygon class="bf" points="14.2 24.9 14 25 14.9 25.6 14.9 25.4 14.2 24.9"/><polygon class="bd" points="16.5 24.5 16.5 25.8 14.9 24.8 14.9 23.6 16.5 24.5"/><polygon class="bz" points="15.2 24.7 15.2 24 16.3 24.6 16.3 25.4 15.2 24.7"/><polygon class="bf" points="15.3 24.6 15.2 24.7 16.3 25.4 16.3 25.2 15.3 24.6"/><polygon class="bd" points="15.2 23.7 15.2 25 13.7 24.2 13.7 22.9 15.2 23.7"/><polygon class="ca" points="14 24 14 23.3 14.9 23.9 14.9 24.6 14 24"/><polygon class="bf" points="14.2 23.9 14 24 14.9 24.6 14.9 24.4 14.2 23.9"/><polygon class="bd" points="18.8 26.8 18.8 28.1 17.2 27.2 17.2 25.9 18.8 26.8"/><polygon class="cb" points="17.5 27 17.5 26.3 18.6 27 18.6 27.7 17.5 27"/><polygon class="bf" points="17.6 26.9 17.5 27 18.6 27.7 18.6 27.5 17.6 26.9"/><polygon class="bd" points="17.5 26 17.5 27.3 16.1 26.5 16.1 25.2 17.5 26"/><polygon class="cc" points="16.3 26.3 16.3 25.6 17.2 26.2 17.2 26.9 16.3 26.3"/><polygon class="bf" points="16.5 26.2 16.3 26.3 17.2 26.9 17.2 26.7 16.5 26.2"/><polygon class="bd" points="18.8 25.8 18.8 27.1 17.2 26.2 17.2 24.9 18.8 25.8"/><polygon class="cd" points="17.5 26 17.5 25.3 18.6 26 18.6 26.7 17.5 26"/><polygon class="bf" points="17.6 25.9 17.5 26 18.6 26.7 18.6 26.5 17.6 25.9"/><polygon class="bd" points="17.5 25 17.5 26.3 16.1 25.5 16.1 24.2 17.5 25"/><polygon class="ce" points="16.3 25.4 16.3 24.6 17.2 25.2 17.2 25.9 16.3 25.4"/><polygon class="bf" points="16.5 25.3 16.3 25.4 17.2 25.9 17.2 25.7 16.5 25.3"/><polygon class="bd" points="21.1 28.1 21.1 29.4 19.5 28.4 19.5 27.2 21.1 28.1"/><polygon class="cf" points="19.7 28.3 19.7 27.6 20.8 28.2 20.8 29 19.7 28.3"/><polygon class="bf" points="19.9 28.2 19.7 28.3 20.8 29 20.8 28.8 19.9 28.2"/><polygon class="bd" points="19.7 27.3 19.7 28.6 18.3 27.8 18.3 26.5 19.7 27.3"/><polygon class="cg" points="18.5 27.6 18.5 26.9 19.5 27.5 19.5 28.2 18.5 27.6"/><polygon class="bf" points="18.7 27.5 18.5 27.6 19.5 28.2 19.5 28 18.7 27.5"/><polygon class="bd" points="21.1 27.1 21.1 28.4 19.5 27.5 19.5 26.2 21.1 27.1"/><polygon class="ch" points="19.7 27.3 19.7 26.6 20.8 27.3 20.8 28 19.7 27.3"/><polygon class="bf" points="19.9 27.2 19.7 27.3 20.8 28 20.8 27.8 19.9 27.2"/><polygon class="bd" points="19.7 26.3 19.7 27.6 18.3 26.8 18.3 25.5 19.7 26.3"/><polygon class="ci" points="18.5 26.6 18.5 25.9 19.5 26.5 19.5 27.2 18.5 26.6"/><polygon class="bf" points="18.7 26.6 18.5 26.6 19.5 27.2 19.5 27 18.7 26.6"/><polygon class="cj" points="13.1 29.1 13.1 33.2 16.5 35.2 16.5 31.1 13.1 29.1"/><rect class="ck" x="14.8" y="28.3" width="0.1" height="3.97" transform="translate(-18.8 27.9) rotate(-60)"/><rect class="ck" x="14.8" y="28.7" width="0.1" height="3.97" transform="matrix(0.5, -0.87, 0.87, 0.5, -19.17, 28.16)"/><rect class="ck" x="14.8" y="29.1" width="0.1" height="3.97" transform="translate(-19.5 28.4) rotate(-60)"/><rect class="ck" x="14.8" y="29.6" width="0.1" height="3.97" transform="translate(-19.9 28.6) rotate(-60)"/><rect class="ck" x="14.8" y="30" width="0.1" height="3.97" transform="translate(-20.3 28.8) rotate(-60)"/><rect class="ck" x="14.8" y="30.4" width="0.1" height="3.97" transform="matrix(0.5, -0.87, 0.87, 0.5, -20.66, 29.02)"/><rect class="ck" x="14.8" y="30.8" width="0.1" height="3.97" transform="translate(-21 29.2) rotate(-59.9)"/><rect class="ck" x="14.8" y="31.3" width="0.1" height="3.97" transform="matrix(0.5, -0.87, 0.87, 0.5, -21.4, 29.45)"/><rect class="ck" x="14.8" y="31.7" width="0.1" height="3.97" transform="translate(-21.8 29.6) rotate(-60)"/><polygon class="cl" points="13.1 32.8 13.1 33.2 16.5 35.2 16.5 34.8 13.1 32.8"/><polygon class="cm" points="16.4 31.2 16.5 31.1 16.5 30.4 16.4 30.4 16.4 31.2"/><polygon class="cl" points="13.2 28.5 13 28.7 16.4 30.7 16.5 30.4 13.2 28.5"/><polygon class="cn" points="13 28.7 13 29.2 16.4 31.2 16.4 30.7 13 28.7"/><polygon class="cj" points="17.7 31.9 17.7 35.9 21.2 37.9 21.2 33.9 17.7 31.9"/><rect class="ck" x="19.4" y="31" width="0.1" height="3.97" transform="translate(-18.8 33.3) rotate(-60)"/><rect class="ck" x="19.4" y="31.4" width="0.1" height="3.97" transform="translate(-19.2 33.5) rotate(-60)"/><rect class="ck" x="19.4" y="31.9" width="0.1" height="3.97" transform="translate(-19.6 33.7) rotate(-60)"/><rect class="ck" x="19.4" y="32.3" width="0.1" height="3.97" transform="translate(-20 33.9) rotate(-60)"/><rect class="ck" x="19.4" y="32.7" width="0.1" height="3.97" transform="translate(-20.3 34.1) rotate(-60)"/><rect class="ck" x="19.4" y="33.1" width="0.1" height="3.97" transform="translate(-20.7 34.4) rotate(-60)"/><rect class="ck" x="19.4" y="33.6" width="0.1" height="3.97" transform="translate(-21.1 34.6) rotate(-60)"/><rect class="ck" x="19.4" y="34" width="0.1" height="3.97" transform="translate(-21.4 34.8) rotate(-60)"/><rect class="ck" x="19.4" y="34.4" width="0.1" height="3.97" transform="translate(-21.8 35) rotate(-59.9)"/><polygon class="cl" points="17.7 35.5 17.7 36 21.2 37.9 21.2 37.5 17.7 35.5"/><polygon class="cm" points="21 33.9 21.2 33.8 21.2 33.2 21 33.2 21 33.9"/><polygon class="cl" points="17.8 31.2 17.6 31.5 21 33.5 21.2 33.2 17.8 31.2"/><polygon class="cn" points="17.6 31.5 17.6 31.9 21 33.9 21 33.5 17.6 31.5"/><polygon class="bd" points="33.8 22.1 33.8 23.4 35.3 22.5 35.3 21.3 33.8 22.1"/><polygon class="co" points="35 22.4 35 21.7 34 22.3 34 23 35 22.4"/><polygon class="bb" points="34.9 22.3 34.9 21.7 35 21.7 35 22.4 34 23 34 22.8 34.9 22.3"/><polygon class="bf" points="34.9 22.3 35 22.4 34 23 34 22.8 34.9 22.3"/><polygon class="bd" points="33.8 25.9 33.8 27.2 35.3 26.3 35.3 25.1 33.8 25.9"/><polygon class="co" points="35 26.2 35 25.5 34 26.1 34 26.8 35 26.2"/><polygon class="bb" points="34.9 26.1 34.9 25.5 35 25.5 35 26.2 34 26.8 34 26.6 34.9 26.1"/><polygon class="bf" points="34.9 26.1 35 26.2 34 26.8 34 26.6 34.9 26.1"/><polygon class="am" points="11.6 17.5 11.6 17.8 14.1 16.4 14.1 16 11.6 17.5"/></g></svg>